<svg xmlns="http://www.w3.org/2000/svg" xmlns:xlink="http://www.w3.org/1999/xlink" width="500" zoomAndPan="magnify" viewBox="0 0 375 374.999991" height="500" preserveAspectRatio="xMidYMid meet" version="1.0"><defs><g/><clipPath id="ddd94940c1"><path d="M 89.925781 63 L 283 63 L 283 201.574219 L 89.925781 201.574219 Z M 89.925781 63 " clip-rule="nonzero"/></clipPath><clipPath id="f2e68c9e7c"><path d="M 99 28.324219 L 284.925781 28.324219 L 284.925781 182 L 99 182 Z M 99 28.324219 " clip-rule="nonzero"/></clipPath></defs><g clip-path="url(#ddd94940c1)"><path fill="#1e1e1e" d="M 189.296875 126.792969 C 188.320312 126.734375 184.167969 126.550781 183.375 126.0625 C 184.292969 124.292969 187.402344 120.933594 190.515625 122.339844 C 190.578125 123.496094 189.664062 125.757812 189.296875 126.792969 Z M 187.402344 65.878906 C 187.527344 64.902344 187.832031 64.59375 188.074219 63.863281 C 184.71875 64.046875 178.492188 67.28125 176.355469 68.683594 C 174.648438 69.785156 172.9375 71.066406 171.59375 72.285156 C 169.335938 74.300781 169.09375 75.15625 167.199219 75.886719 C 163.84375 77.167969 160.792969 81.074219 159.328125 84.433594 C 157.25 89.195312 156.703125 93.953125 156.703125 99.449219 C 156.703125 108.726562 160.546875 120.996094 170.375 113.792969 C 175.5 110.070312 180.507812 102.621094 183.558594 95.296875 C 183.496094 101.035156 179.042969 110.433594 176.417969 113.425781 C 173.488281 116.722656 168.421875 120.628906 163.292969 118.980469 C 161.890625 118.554688 161.28125 118.003906 160.363281 117.089844 L 159.386719 116.355469 C 159.386719 124.230469 157.984375 129.480469 155.175781 135.460938 C 153.832031 138.207031 152.488281 140.464844 150.84375 142.90625 C 144.492188 152.550781 136.070312 160.609375 130.882812 169.03125 C 123.617188 180.691406 133.566406 174.527344 116.292969 180.140625 C 108.113281 182.765625 93.710938 189.175781 89.925781 195.585938 C 90.71875 195.15625 91.574219 194.484375 92.488281 193.9375 C 95.417969 192.167969 97.738281 191.191406 101.035156 190.03125 C 110.617188 186.671875 118.917969 186 128.808594 184.597656 C 134.054688 183.863281 139.183594 183.988281 144.492188 183.621094 C 144.492188 171.472656 147.058594 165.980469 152.734375 156.457031 C 154.808594 153.039062 156.945312 150.050781 159.019531 146.632812 C 161.097656 143.152344 162.621094 140.160156 164.390625 136.132812 L 165.246094 141.136719 C 166.039062 136.867188 166.101562 134.851562 167.566406 131.003906 C 168.847656 127.464844 175.441406 115.746094 178.738281 117.761719 C 179.589844 118.25 180.507812 120.566406 180.871094 121.972656 C 181.484375 124.167969 181.300781 125.207031 181.484375 127.464844 C 188.257812 127.527344 193.628906 128.746094 194.605469 134.851562 C 205.289062 136.253906 200.832031 138.511719 200.101562 140.40625 C 200.894531 140.464844 200.832031 140.34375 201.503906 140.710938 C 201.929688 147.363281 197.476562 149.867188 193.507812 152.367188 C 188.441406 155.542969 185.328125 157.191406 185.207031 163.601562 C 184.597656 163.476562 180.628906 159.753906 177.882812 159.632812 C 178.738281 160.183594 181.484375 162.867188 182.335938 163.722656 C 191.066406 172.9375 197.597656 183.316406 201.992188 195.402344 C 202.417969 196.5 203.703125 201.078125 204.128906 201.75 C 205.105469 199.980469 204.859375 195.644531 204.738281 193.324219 C 207.914062 193.632812 211.941406 194.667969 215.480469 195.15625 C 232.695312 197.539062 252.105469 196.925781 268.035156 189.96875 C 272.371094 188.136719 280 183.988281 282.808594 180.753906 C 280.671875 181.363281 277.984375 182.707031 275.542969 183.5 C 260.832031 188.320312 244.230469 188.75 228.910156 186.488281 C 222.988281 185.636719 220.425781 184.78125 215.785156 183.988281 C 216.03125 183.011719 216.582031 182.09375 216.886719 181.117188 C 217.253906 180.203125 217.433594 179.105469 217.679688 177.945312 C 218.535156 178.796875 218.535156 179.410156 220.183594 179.714844 C 219.570312 176.417969 217.070312 165.25 219.082031 162.011719 C 220.671875 164.453125 221.097656 166.40625 221.890625 169.703125 C 222.5625 165.738281 221.21875 160.425781 219.9375 156.765625 C 219.511719 155.542969 218.839844 154.261719 218.535156 153.164062 C 219.570312 153.894531 219.9375 155.054688 220.730469 155.664062 C 220.609375 151.699219 218.59375 148.035156 217.070312 145.410156 C 209.925781 133.386719 207.242188 129.847656 207.972656 113 C 206.386719 113.488281 199.855469 119.957031 199.367188 120.8125 C 199.917969 118.492188 204.128906 114.035156 205.59375 112.816406 C 208.339844 110.496094 210.660156 108.96875 214.015625 107.140625 C 221.585938 102.804688 228.605469 101.402344 228.910156 93.589844 C 232.632812 91.085938 233 84.492188 231.65625 81.199219 C 230.800781 79 230.070312 79.121094 229.277344 78.085938 C 231.839844 76.863281 231.839844 74.363281 229.277344 73.078125 C 222.988281 69.96875 211.269531 77.597656 206.570312 75.277344 C 207.121094 74.117188 207.914062 74.117188 209.5 73.75 C 208.21875 72.226562 206.019531 70.273438 204.007812 68.992188 C 199.976562 66.425781 198.511719 66.914062 196.742188 66.058594 C 197.660156 65.328125 197.414062 65.632812 198.511719 65.207031 C 198.511719 65.207031 198.878906 65.207031 199.125 64.902344 L 195.09375 64.472656 C 191.738281 64.289062 188.503906 65.878906 187.402344 65.878906 Z M 187.402344 65.878906 " fill-opacity="1" fill-rule="evenodd"/></g><path fill="#1e1e1e" d="M 100.179688 199.734375 C 103.292969 198.878906 106.160156 197.660156 109.703125 196.746094 C 120.933594 193.996094 132.53125 193.265625 143.882812 195.339844 C 157.554688 197.902344 175.441406 200.101562 190.089844 198.210938 C 189.113281 197.78125 179.957031 196.988281 177.941406 196.746094 C 166.347656 195.15625 153.953125 191.921875 143.640625 190.519531 C 134.363281 189.296875 127.402344 189.542969 118.796875 191.433594 C 113.914062 192.472656 108.175781 194.609375 103.964844 197.109375 C 102.378906 198.085938 101.402344 198.878906 100.179688 199.734375 Z M 100.179688 199.734375 " fill-opacity="1" fill-rule="evenodd"/><path fill="#fffbfb" d="M 189.296875 126.792969 C 189.664062 125.757812 190.578125 123.496094 190.515625 122.339844 C 187.402344 120.933594 184.292969 124.292969 183.375 126.0625 C 184.167969 126.550781 188.320312 126.734375 189.296875 126.792969 Z M 189.296875 126.792969 " fill-opacity="1" fill-rule="evenodd"/><g clip-path="url(#f2e68c9e7c)"><path fill="#1e1e1e" d="M 102.011719 112.878906 C 100.179688 106.101562 99.265625 98.960938 99.449219 91.878906 C 99.691406 78.695312 103.71875 65.695312 111.777344 55.074219 C 115.804688 49.761719 120.6875 45.246094 126.304688 41.707031 C 142.480469 31.453125 160.914062 32.183594 177.453125 41.035156 C 178.796875 41.765625 180.078125 42.5 181.359375 43.292969 C 182.214844 43.78125 183.070312 44.332031 183.925781 44.878906 C 184.292969 45.125 185.632812 45.917969 186.0625 45.917969 C 186.609375 45.855469 188.378906 43.964844 188.808594 43.597656 C 197.230469 35.296875 206.9375 29.5 219.023438 28.886719 C 230.253906 28.339844 240.933594 31.511719 250.457031 37.3125 C 258.878906 42.4375 266.386719 49.640625 272.003906 57.757812 C 273.101562 59.347656 274.199219 60.996094 275.175781 62.703125 C 276.152344 64.414062 277.070312 66.121094 277.984375 67.890625 C 278.414062 68.746094 278.777344 69.539062 279.207031 70.394531 C 283.355469 79.609375 285.066406 89.804688 284.820312 99.875 C 284.636719 107.503906 283.355469 115.195312 281.039062 122.519531 C 279.265625 128.074219 277.191406 133.386719 274.445312 138.574219 C 272.429688 142.417969 270.171875 146.144531 267.851562 149.804688 C 260.039062 162.320312 249.417969 175.320312 236.050781 181.851562 C 254.851562 163.722656 277.679688 120.628906 275.664062 94.261719 C 275.054688 85.960938 272.796875 77.78125 269.195312 70.332031 C 266.144531 64.167969 262.117188 58.1875 257.230469 53.304688 C 250.578125 46.773438 241.851562 42.070312 232.753906 39.9375 C 218.960938 36.699219 204.859375 39.386719 194.179688 49.089844 C 192.714844 50.375 191.554688 51.839844 190.332031 53.304688 C 189.480469 54.402344 188.378906 55.746094 186.914062 56.050781 C 186.0625 56.171875 185.269531 55.929688 184.472656 55.5 C 184.046875 55.257812 183.621094 54.890625 183.191406 54.585938 C 182.582031 54.035156 181.972656 53.546875 181.359375 53 C 179.589844 51.65625 177.761719 50.3125 175.867188 49.214844 C 160.667969 40.300781 145.226562 39.8125 129.660156 47.992188 C 106.773438 60.078125 101.890625 86.628906 106.039062 110.191406 C 107.078125 116.171875 109.945312 128.929688 111.53125 134.910156 C 107.320312 127.832031 104.148438 120.875 102.011719 112.878906 Z M 102.011719 112.878906 " fill-opacity="1" fill-rule="evenodd"/></g><g fill="#1e1e1e" fill-opacity="1"><g transform="translate(70.526096, 234.986959)"><g><path d="M 0.488281 0 L 7.683594 0 C 7.125 -0.488281 6.832031 -1.804688 6.832031 -3.023438 L 6.832031 -12.175781 L 9.417969 -6.246094 C 9.710938 -6.074219 10.199219 -5.929688 10.660156 -5.929688 C 15.636719 -5.929688 19.054688 -10.101562 19.054688 -14.90625 C 19.054688 -19.933594 15.417969 -23.542969 9.199219 -23.542969 L 0.488281 -23.542969 C 1.050781 -23.054688 1.34375 -21.714844 1.34375 -20.492188 L 1.34375 -3.050781 C 1.34375 -1.828125 1.050781 -0.488281 0.488281 0 Z M 9.613281 -18.90625 C 12.296875 -18.90625 13.566406 -16.957031 13.566406 -14.90625 C 13.566406 -12.613281 12.492188 -10.589844 10.125 -10.589844 C 8.390625 -10.589844 7.539062 -11.515625 6.832031 -13.101562 L 6.832031 -18.90625 Z M 9.613281 -18.90625 "/></g></g></g><g fill="#1e1e1e" fill-opacity="1"><g transform="translate(90.066087, 234.986959)"><g><path d="M 2.5625 0 L 9.320312 0 C 7.78125 -2.023438 6.855469 -4.246094 6.488281 -7.027344 L 13.027344 -7.027344 L 13.027344 -3.023438 C 13.027344 -1.804688 12.734375 -0.488281 12.175781 0 L 19.371094 0 C 18.808594 -0.488281 18.515625 -1.828125 18.515625 -3.050781 L 18.515625 -21.761719 C 17.808594 -23.078125 15.394531 -23.910156 13.125 -23.910156 C 5.195312 -23.910156 0.855469 -16.6875 0.855469 -9.976562 C 0.855469 -6 1.390625 -3.464844 2.5625 0 Z M 6.515625 -11.660156 C 7 -14.882812 8.78125 -18.882812 13.050781 -18.882812 L 13.027344 -11.660156 Z M 6.515625 -11.660156 "/></g></g></g><g fill="#1e1e1e" fill-opacity="1"><g transform="translate(109.679273, 234.986959)"><g><path d="M 0.488281 -23.542969 L 0.488281 -17.542969 C 1.683594 -18.664062 3.539062 -18.90625 4.734375 -18.90625 L 6.488281 -18.90625 L 6.488281 -3.050781 C 6.488281 -1.828125 6.195312 -0.488281 5.636719 0 L 12.832031 0 C 12.269531 -0.488281 11.980469 -1.804688 11.980469 -3.023438 L 11.980469 -18.90625 L 13.808594 -18.90625 C 15.003906 -18.90625 16.859375 -18.664062 18.054688 -17.542969 L 18.054688 -23.542969 Z M 0.488281 -23.542969 "/></g></g></g><g fill="#1e1e1e" fill-opacity="1"><g transform="translate(128.219096, 234.986959)"><g><path d="M 2.5625 0 L 9.320312 0 C 7.78125 -2.023438 6.855469 -4.246094 6.488281 -7.027344 L 13.027344 -7.027344 L 13.027344 -3.023438 C 13.027344 -1.804688 12.734375 -0.488281 12.175781 0 L 19.371094 0 C 18.808594 -0.488281 18.515625 -1.828125 18.515625 -3.050781 L 18.515625 -21.761719 C 17.808594 -23.078125 15.394531 -23.910156 13.125 -23.910156 C 5.195312 -23.910156 0.855469 -16.6875 0.855469 -9.976562 C 0.855469 -6 1.390625 -3.464844 2.5625 0 Z M 6.515625 -11.660156 C 7 -14.882812 8.78125 -18.882812 13.050781 -18.882812 L 13.027344 -11.660156 Z M 6.515625 -11.660156 "/></g></g></g><g fill="#1e1e1e" fill-opacity="1"><g transform="translate(147.832282, 234.986959)"><g><path d="M 0.488281 -4 C 1.121094 -1.902344 5.050781 0.367188 9.148438 0.367188 C 14.613281 0.367188 18.785156 -2.414062 18.785156 -7.195312 C 18.785156 -15.46875 7.195312 -12.855469 7.195312 -16.734375 C 7.195312 -18.320312 9.125 -18.957031 10.6875 -18.957031 C 12.882812 -18.957031 14.832031 -17.832031 16.222656 -16.566406 C 17.054688 -18.199219 18.125 -19.589844 18.957031 -20.859375 C 17.492188 -22.101562 15.222656 -23.910156 10.5625 -23.910156 C 5.757812 -23.910156 0.953125 -21.199219 0.953125 -16.589844 C 0.953125 -8.222656 12.785156 -10.320312 12.785156 -6.734375 C 12.785156 -5.074219 11.101562 -4.414062 9.296875 -4.414062 C 6.804688 -4.414062 4.539062 -6.097656 3.269531 -8.125 C 2.5625 -6.683594 1.535156 -5.269531 0.488281 -4 Z M 0.488281 -4 "/></g></g></g><g fill="#1e1e1e" fill-opacity="1"><g transform="translate(167.274696, 234.986959)"><g/></g></g><g fill="#1e1e1e" fill-opacity="1"><g transform="translate(174.593051, 234.986959)"><g><path d="M 12.515625 0.367188 C 15.980469 0.367188 19.054688 -0.609375 20.933594 -2.683594 C 20.101562 -4.683594 19.347656 -7.269531 19.347656 -7.269531 C 19.347656 -7.269531 17.640625 -4.316406 13.417969 -4.316406 C 11.246094 -4.316406 9.222656 -5.148438 7.90625 -6.804688 C 6.878906 -9.199219 9.246094 -10.296875 12.199219 -10.296875 C 14.101562 -10.296875 16.027344 -9.464844 17.003906 -8.636719 L 17.003906 -14.027344 C 16.613281 -14.761719 14.90625 -15.394531 13.417969 -15.394531 C 9.539062 -15.394531 6.832031 -12.199219 7.097656 -8.101562 C 6.613281 -9.101562 6.34375 -10.320312 6.34375 -11.757812 C 6.34375 -16.785156 9.660156 -19.25 13.417969 -19.25 C 17.640625 -19.25 19.347656 -16.296875 19.347656 -16.296875 C 19.347656 -16.296875 20.101562 -18.882812 20.933594 -20.882812 C 19.054688 -22.957031 15.980469 -23.910156 12.515625 -23.910156 C 5.417969 -23.910156 0.855469 -18.46875 0.855469 -11.785156 C 0.855469 -5.097656 5.417969 0.367188 12.515625 0.367188 Z M 12.515625 0.367188 "/></g></g></g><g fill="#1e1e1e" fill-opacity="1"><g transform="translate(195.523534, 234.986959)"><g/></g></g><g fill="#1e1e1e" fill-opacity="1"><g transform="translate(202.84189, 234.986959)"><g><path d="M 0.488281 0 L 7.683594 0 C 7.125 -0.488281 6.832031 -1.804688 6.832031 -3.023438 L 6.832031 -12.175781 L 9.417969 -6.246094 C 9.710938 -6.074219 10.199219 -5.929688 10.660156 -5.929688 C 15.636719 -5.929688 19.054688 -10.101562 19.054688 -14.90625 C 19.054688 -19.933594 15.417969 -23.542969 9.199219 -23.542969 L 0.488281 -23.542969 C 1.050781 -23.054688 1.34375 -21.714844 1.34375 -20.492188 L 1.34375 -3.050781 C 1.34375 -1.828125 1.050781 -0.488281 0.488281 0 Z M 9.613281 -18.90625 C 12.296875 -18.90625 13.566406 -16.957031 13.566406 -14.90625 C 13.566406 -12.613281 12.492188 -10.589844 10.125 -10.589844 C 8.390625 -10.589844 7.539062 -11.515625 6.832031 -13.101562 L 6.832031 -18.90625 Z M 9.613281 -18.90625 "/></g></g></g><g fill="#1e1e1e" fill-opacity="1"><g transform="translate(222.381881, 234.986959)"><g><path d="M 12.515625 0.367188 C 15.980469 0.367188 19.054688 -0.609375 20.933594 -2.683594 C 20.101562 -4.683594 19.347656 -7.269531 19.347656 -7.269531 C 19.347656 -7.269531 17.640625 -4.316406 13.417969 -4.316406 C 11.246094 -4.316406 9.222656 -5.148438 7.90625 -6.804688 C 6.878906 -9.199219 9.246094 -10.296875 12.199219 -10.296875 C 14.101562 -10.296875 16.027344 -9.464844 17.003906 -8.636719 L 17.003906 -14.027344 C 16.613281 -14.761719 14.90625 -15.394531 13.417969 -15.394531 C 9.539062 -15.394531 6.832031 -12.199219 7.097656 -8.101562 C 6.613281 -9.101562 6.34375 -10.320312 6.34375 -11.757812 C 6.34375 -16.785156 9.660156 -19.25 13.417969 -19.25 C 17.640625 -19.25 19.347656 -16.296875 19.347656 -16.296875 C 19.347656 -16.296875 20.101562 -18.882812 20.933594 -20.882812 C 19.054688 -22.957031 15.980469 -23.910156 12.515625 -23.910156 C 5.417969 -23.910156 0.855469 -18.46875 0.855469 -11.785156 C 0.855469 -5.097656 5.417969 0.367188 12.515625 0.367188 Z M 12.515625 0.367188 "/></g></g></g><g fill="#1e1e1e" fill-opacity="1"><g transform="translate(243.312364, 234.986959)"><g><path d="M 0.488281 0 L 17.445312 0 L 17.445312 -6 C 16.25 -4.878906 14.394531 -4.636719 13.199219 -4.636719 L 6.832031 -4.636719 L 6.832031 -20.515625 C 6.832031 -21.738281 7.125 -23.054688 7.683594 -23.542969 L 0.488281 -23.542969 C 1.050781 -23.054688 1.34375 -21.714844 1.34375 -20.492188 L 1.34375 -3.050781 C 1.34375 -1.828125 1.050781 -0.488281 0.488281 0 Z M 0.488281 0 "/></g></g></g><g fill="#1e1e1e" fill-opacity="1"><g transform="translate(261.242327, 234.986959)"><g><path d="M 0.855469 -11.757812 C 0.855469 -5.074219 4.171875 0.367188 11.882812 0.367188 C 19.589844 0.367188 22.910156 -5.074219 22.910156 -11.757812 C 22.910156 -18.46875 19.589844 -23.910156 11.882812 -23.910156 C 4.171875 -23.910156 0.855469 -18.46875 0.855469 -11.757812 Z M 6.34375 -11.785156 C 6.34375 -15.882812 8.003906 -19.199219 11.855469 -19.199219 C 15.761719 -19.199219 17.417969 -15.882812 17.417969 -11.785156 C 17.417969 -7.710938 15.761719 -4.367188 11.855469 -4.367188 C 8.003906 -4.367188 6.34375 -7.710938 6.34375 -11.785156 Z M 6.34375 -11.785156 "/></g></g></g><g fill="#1e1e1e" fill-opacity="1"><g transform="translate(285.002576, 234.986959)"><g><path d="M 0.488281 -4 C 1.121094 -1.902344 5.050781 0.367188 9.148438 0.367188 C 14.613281 0.367188 18.785156 -2.414062 18.785156 -7.195312 C 18.785156 -15.46875 7.195312 -12.855469 7.195312 -16.734375 C 7.195312 -18.320312 9.125 -18.957031 10.6875 -18.957031 C 12.882812 -18.957031 14.832031 -17.832031 16.222656 -16.566406 C 17.054688 -18.199219 18.125 -19.589844 18.957031 -20.859375 C 17.492188 -22.101562 15.222656 -23.910156 10.5625 -23.910156 C 5.757812 -23.910156 0.953125 -21.199219 0.953125 -16.589844 C 0.953125 -8.222656 12.785156 -10.320312 12.785156 -6.734375 C 12.785156 -5.074219 11.101562 -4.414062 9.296875 -4.414062 C 6.804688 -4.414062 4.539062 -6.097656 3.269531 -8.125 C 2.5625 -6.683594 1.535156 -5.269531 0.488281 -4 Z M 0.488281 -4 "/></g></g></g><g fill="#1e1e1e" fill-opacity="1"><g transform="translate(117.93998, 324.051072)"><g><path d="M 1 -9.625 C 1.207031 -9.8125 1.441406 -9.90625 1.703125 -9.90625 C 1.972656 -9.90625 2.207031 -9.8125 2.40625 -9.625 C 2.613281 -9.445312 2.71875 -9.25 2.71875 -9.03125 L 2.71875 -8.984375 C 2.71875 -8.816406 2.65625 -8.453125 2.53125 -7.890625 C 2.414062 -7.328125 2.296875 -6.804688 2.171875 -6.328125 L 2 -5.609375 L 1.203125 -5.609375 C 0.867188 -7.492188 0.703125 -8.617188 0.703125 -8.984375 L 0.703125 -9.03125 C 0.703125 -9.25 0.800781 -9.445312 1 -9.625 Z M 3.625 -9.625 C 3.820312 -9.8125 4.054688 -9.90625 4.328125 -9.90625 C 4.597656 -9.90625 4.832031 -9.8125 5.03125 -9.625 C 5.238281 -9.445312 5.34375 -9.25 5.34375 -9.03125 L 5.34375 -8.984375 C 5.34375 -8.816406 5.28125 -8.453125 5.15625 -7.890625 C 5.039062 -7.328125 4.921875 -6.804688 4.796875 -6.328125 L 4.609375 -5.609375 L 3.828125 -5.609375 C 3.492188 -7.492188 3.328125 -8.617188 3.328125 -8.984375 L 3.328125 -9.03125 C 3.328125 -9.25 3.425781 -9.445312 3.625 -9.625 Z M 3.625 -9.625 "/></g></g></g><g fill="#1e1e1e" fill-opacity="1"><g transform="translate(126.608988, 324.051072)"><g><path d="M 5.890625 -2 C 6.222656 -2 6.546875 -2.050781 6.859375 -2.15625 C 7.179688 -2.257812 7.421875 -2.359375 7.578125 -2.453125 L 7.796875 -2.609375 L 8.734375 -0.71875 C 8.703125 -0.695312 8.660156 -0.664062 8.609375 -0.625 C 8.554688 -0.582031 8.425781 -0.507812 8.21875 -0.40625 C 8.019531 -0.300781 7.804688 -0.207031 7.578125 -0.125 C 7.359375 -0.0507812 7.0625 0.015625 6.6875 0.078125 C 6.320312 0.140625 5.941406 0.171875 5.546875 0.171875 C 4.640625 0.171875 3.78125 -0.046875 2.96875 -0.484375 C 2.15625 -0.929688 1.5 -1.539062 1 -2.3125 C 0.507812 -3.09375 0.265625 -3.9375 0.265625 -4.84375 C 0.265625 -5.53125 0.410156 -6.1875 0.703125 -6.8125 C 0.992188 -7.445312 1.378906 -7.988281 1.859375 -8.4375 C 2.347656 -8.882812 2.914062 -9.238281 3.5625 -9.5 C 4.207031 -9.769531 4.867188 -9.90625 5.546875 -9.90625 C 6.171875 -9.90625 6.75 -9.832031 7.28125 -9.6875 C 7.8125 -9.539062 8.1875 -9.390625 8.40625 -9.234375 L 8.734375 -9.015625 L 7.796875 -7.125 C 7.742188 -7.175781 7.660156 -7.234375 7.546875 -7.296875 C 7.441406 -7.359375 7.222656 -7.445312 6.890625 -7.5625 C 6.554688 -7.675781 6.222656 -7.734375 5.890625 -7.734375 C 5.347656 -7.734375 4.863281 -7.644531 4.4375 -7.46875 C 4.019531 -7.289062 3.6875 -7.0625 3.4375 -6.78125 C 3.1875 -6.5 2.992188 -6.191406 2.859375 -5.859375 C 2.734375 -5.535156 2.671875 -5.207031 2.671875 -4.875 C 2.671875 -4.132812 2.945312 -3.46875 3.5 -2.875 C 4.0625 -2.289062 4.859375 -2 5.890625 -2 Z M 5.890625 -2 "/></g></g></g><g fill="#1e1e1e" fill-opacity="1"><g transform="translate(138.108188, 324.051072)"><g><path d="M 8.1875 -9.734375 L 8.1875 -3.453125 C 8.1875 -2.253906 7.863281 -1.347656 7.21875 -0.734375 C 6.570312 -0.128906 5.628906 0.171875 4.390625 0.171875 C 3.148438 0.171875 2.207031 -0.128906 1.5625 -0.734375 C 0.914062 -1.347656 0.59375 -2.253906 0.59375 -3.453125 L 0.59375 -9.734375 L 2.8125 -9.734375 L 2.8125 -4.109375 C 2.8125 -3.316406 2.929688 -2.765625 3.171875 -2.453125 C 3.421875 -2.148438 3.820312 -2 4.375 -2 C 4.9375 -2 5.34375 -2.148438 5.59375 -2.453125 C 5.84375 -2.765625 5.96875 -3.316406 5.96875 -4.109375 L 5.96875 -9.734375 Z M 8.1875 -9.734375 "/></g></g></g><g fill="#1e1e1e" fill-opacity="1"><g transform="translate(149.501256, 324.051072)"><g><path d="M 2.921875 -9.734375 L 2.921875 0 L 0.703125 0 L 0.703125 -9.734375 Z M 2.921875 -9.734375 "/></g></g></g><g fill="#1e1e1e" fill-opacity="1"><g transform="translate(155.752806, 324.051072)"><g><path d="M 0.703125 -9.734375 L 3.53125 -9.734375 C 4.882812 -9.734375 6.039062 -9.269531 7 -8.34375 C 7.957031 -7.414062 8.4375 -6.257812 8.4375 -4.875 C 8.4375 -3.46875 7.957031 -2.300781 7 -1.375 C 6.039062 -0.457031 4.882812 0 3.53125 0 L 0.703125 0 Z M 2.921875 -1.984375 L 3.265625 -1.984375 C 4.078125 -1.984375 4.738281 -2.253906 5.25 -2.796875 C 5.769531 -3.347656 6.035156 -4.035156 6.046875 -4.859375 C 6.046875 -5.679688 5.785156 -6.367188 5.265625 -6.921875 C 4.753906 -7.472656 4.085938 -7.75 3.265625 -7.75 L 2.921875 -7.75 Z M 2.921875 -1.984375 "/></g></g></g><g fill="#1e1e1e" fill-opacity="1"><g transform="translate(167.075112, 324.051072)"><g><path d="M 5.65625 -9.734375 L 9.578125 0 L 7.203125 0 L 6.46875 -1.953125 L 2.765625 -1.953125 L 2.046875 0 L -0.328125 0 L 3.59375 -9.734375 Z M 5.71875 -3.890625 L 4.640625 -6.71875 L 4.609375 -6.71875 L 3.53125 -3.890625 Z M 5.71875 -3.890625 "/></g></g></g><g fill="#1e1e1e" fill-opacity="1"><g transform="translate(178.939871, 324.051072)"><g><path d="M 2.921875 -6.046875 L 2.921875 0 L 0.703125 0 L 0.703125 -9.734375 L 2.921875 -9.734375 L 6.796875 -3.6875 L 6.8125 -3.6875 L 6.8125 -9.734375 L 9.03125 -9.734375 L 9.03125 0 L 6.8125 0 L 2.953125 -6.046875 Z M 2.921875 -6.046875 "/></g></g></g><g fill="#1e1e1e" fill-opacity="1"><g transform="translate(191.299923, 324.051072)"><g><path d="M 0.703125 -9.734375 L 3.53125 -9.734375 C 4.882812 -9.734375 6.039062 -9.269531 7 -8.34375 C 7.957031 -7.414062 8.4375 -6.257812 8.4375 -4.875 C 8.4375 -3.46875 7.957031 -2.300781 7 -1.375 C 6.039062 -0.457031 4.882812 0 3.53125 0 L 0.703125 0 Z M 2.921875 -1.984375 L 3.265625 -1.984375 C 4.078125 -1.984375 4.738281 -2.253906 5.25 -2.796875 C 5.769531 -3.347656 6.035156 -4.035156 6.046875 -4.859375 C 6.046875 -5.679688 5.785156 -6.367188 5.265625 -6.921875 C 4.753906 -7.472656 4.085938 -7.75 3.265625 -7.75 L 2.921875 -7.75 Z M 2.921875 -1.984375 "/></g></g></g><g fill="#1e1e1e" fill-opacity="1"><g transform="translate(202.622226, 324.051072)"><g><path d="M 0.265625 -4.875 C 0.265625 -6.28125 0.742188 -7.46875 1.703125 -8.4375 C 2.671875 -9.414062 3.828125 -9.90625 5.171875 -9.90625 C 6.535156 -9.90625 7.691406 -9.421875 8.640625 -8.453125 C 9.597656 -7.484375 10.078125 -6.289062 10.078125 -4.875 C 10.078125 -3.445312 9.609375 -2.25 8.671875 -1.28125 C 7.734375 -0.3125 6.566406 0.171875 5.171875 0.171875 C 3.753906 0.171875 2.582031 -0.304688 1.65625 -1.265625 C 0.726562 -2.234375 0.265625 -3.4375 0.265625 -4.875 Z M 2.671875 -4.875 C 2.671875 -4.363281 2.75 -3.894531 2.90625 -3.46875 C 3.0625 -3.050781 3.332031 -2.695312 3.71875 -2.40625 C 4.113281 -2.113281 4.597656 -1.96875 5.171875 -1.96875 C 6.003906 -1.96875 6.628906 -2.25 7.046875 -2.8125 C 7.472656 -3.382812 7.6875 -4.070312 7.6875 -4.875 C 7.6875 -5.664062 7.46875 -6.347656 7.03125 -6.921875 C 6.601562 -7.492188 5.984375 -7.78125 5.171875 -7.78125 C 4.367188 -7.78125 3.75 -7.492188 3.3125 -6.921875 C 2.882812 -6.347656 2.671875 -5.664062 2.671875 -4.875 Z M 2.671875 -4.875 "/></g></g></g><g fill="#1e1e1e" fill-opacity="1"><g transform="translate(215.583682, 324.051072)"><g/></g></g><g fill="#1e1e1e" fill-opacity="1"><g transform="translate(221.422495, 324.051072)"><g><path d="M 5.890625 -2 C 6.222656 -2 6.546875 -2.050781 6.859375 -2.15625 C 7.179688 -2.257812 7.421875 -2.359375 7.578125 -2.453125 L 7.796875 -2.609375 L 8.734375 -0.71875 C 8.703125 -0.695312 8.660156 -0.664062 8.609375 -0.625 C 8.554688 -0.582031 8.425781 -0.507812 8.21875 -0.40625 C 8.019531 -0.300781 7.804688 -0.207031 7.578125 -0.125 C 7.359375 -0.0507812 7.0625 0.015625 6.6875 0.078125 C 6.320312 0.140625 5.941406 0.171875 5.546875 0.171875 C 4.640625 0.171875 3.78125 -0.046875 2.96875 -0.484375 C 2.15625 -0.929688 1.5 -1.539062 1 -2.3125 C 0.507812 -3.09375 0.265625 -3.9375 0.265625 -4.84375 C 0.265625 -5.53125 0.410156 -6.1875 0.703125 -6.8125 C 0.992188 -7.445312 1.378906 -7.988281 1.859375 -8.4375 C 2.347656 -8.882812 2.914062 -9.238281 3.5625 -9.5 C 4.207031 -9.769531 4.867188 -9.90625 5.546875 -9.90625 C 6.171875 -9.90625 6.75 -9.832031 7.28125 -9.6875 C 7.8125 -9.539062 8.1875 -9.390625 8.40625 -9.234375 L 8.734375 -9.015625 L 7.796875 -7.125 C 7.742188 -7.175781 7.660156 -7.234375 7.546875 -7.296875 C 7.441406 -7.359375 7.222656 -7.445312 6.890625 -7.5625 C 6.554688 -7.675781 6.222656 -7.734375 5.890625 -7.734375 C 5.347656 -7.734375 4.863281 -7.644531 4.4375 -7.46875 C 4.019531 -7.289062 3.6875 -7.0625 3.4375 -6.78125 C 3.1875 -6.5 2.992188 -6.191406 2.859375 -5.859375 C 2.734375 -5.535156 2.671875 -5.207031 2.671875 -4.875 C 2.671875 -4.132812 2.945312 -3.46875 3.5 -2.875 C 4.0625 -2.289062 4.859375 -2 5.890625 -2 Z M 5.890625 -2 "/></g></g></g><g fill="#1e1e1e" fill-opacity="1"><g transform="translate(232.921692, 324.051072)"><g><path d="M 0.265625 -4.875 C 0.265625 -6.28125 0.742188 -7.46875 1.703125 -8.4375 C 2.671875 -9.414062 3.828125 -9.90625 5.171875 -9.90625 C 6.535156 -9.90625 7.691406 -9.421875 8.640625 -8.453125 C 9.597656 -7.484375 10.078125 -6.289062 10.078125 -4.875 C 10.078125 -3.445312 9.609375 -2.25 8.671875 -1.28125 C 7.734375 -0.3125 6.566406 0.171875 5.171875 0.171875 C 3.753906 0.171875 2.582031 -0.304688 1.65625 -1.265625 C 0.726562 -2.234375 0.265625 -3.4375 0.265625 -4.875 Z M 2.671875 -4.875 C 2.671875 -4.363281 2.75 -3.894531 2.90625 -3.46875 C 3.0625 -3.050781 3.332031 -2.695312 3.71875 -2.40625 C 4.113281 -2.113281 4.597656 -1.96875 5.171875 -1.96875 C 6.003906 -1.96875 6.628906 -2.25 7.046875 -2.8125 C 7.472656 -3.382812 7.6875 -4.070312 7.6875 -4.875 C 7.6875 -5.664062 7.46875 -6.347656 7.03125 -6.921875 C 6.601562 -7.492188 5.984375 -7.78125 5.171875 -7.78125 C 4.367188 -7.78125 3.75 -7.492188 3.3125 -6.921875 C 2.882812 -6.347656 2.671875 -5.664062 2.671875 -4.875 Z M 2.671875 -4.875 "/></g></g></g><g fill="#1e1e1e" fill-opacity="1"><g transform="translate(245.883149, 324.051072)"><g><path d="M 8.75 0 L 8.296875 -5.765625 L 8.234375 -5.765625 L 6.234375 -0.0625 L 4.921875 -0.0625 L 2.921875 -5.765625 L 2.859375 -5.765625 L 2.40625 0 L 0.1875 0 L 1.0625 -9.734375 L 3.421875 -9.734375 L 5.578125 -4.109375 L 7.734375 -9.734375 L 10.09375 -9.734375 L 10.96875 0 Z M 8.75 0 "/></g></g></g><g fill="#1e1e1e" fill-opacity="1"><g transform="translate(124.009296, 339.873322)"><g><path d="M 5.65625 -9.734375 L 9.578125 0 L 7.203125 0 L 6.46875 -1.953125 L 2.765625 -1.953125 L 2.046875 0 L -0.328125 0 L 3.59375 -9.734375 Z M 5.71875 -3.890625 L 4.640625 -6.71875 L 4.609375 -6.71875 L 3.53125 -3.890625 Z M 5.71875 -3.890625 "/></g></g></g><g fill="#1e1e1e" fill-opacity="1"><g transform="translate(135.874055, 339.873322)"><g><path d="M 8.75 0 L 8.296875 -5.765625 L 8.234375 -5.765625 L 6.234375 -0.0625 L 4.921875 -0.0625 L 2.921875 -5.765625 L 2.859375 -5.765625 L 2.40625 0 L 0.1875 0 L 1.0625 -9.734375 L 3.421875 -9.734375 L 5.578125 -4.109375 L 7.734375 -9.734375 L 10.09375 -9.734375 L 10.96875 0 Z M 8.75 0 "/></g></g></g><g fill="#1e1e1e" fill-opacity="1"><g transform="translate(149.649201, 339.873322)"><g><path d="M 0.265625 -4.875 C 0.265625 -6.28125 0.742188 -7.46875 1.703125 -8.4375 C 2.671875 -9.414062 3.828125 -9.90625 5.171875 -9.90625 C 6.535156 -9.90625 7.691406 -9.421875 8.640625 -8.453125 C 9.597656 -7.484375 10.078125 -6.289062 10.078125 -4.875 C 10.078125 -3.445312 9.609375 -2.25 8.671875 -1.28125 C 7.734375 -0.3125 6.566406 0.171875 5.171875 0.171875 C 3.753906 0.171875 2.582031 -0.304688 1.65625 -1.265625 C 0.726562 -2.234375 0.265625 -3.4375 0.265625 -4.875 Z M 2.671875 -4.875 C 2.671875 -4.363281 2.75 -3.894531 2.90625 -3.46875 C 3.0625 -3.050781 3.332031 -2.695312 3.71875 -2.40625 C 4.113281 -2.113281 4.597656 -1.96875 5.171875 -1.96875 C 6.003906 -1.96875 6.628906 -2.25 7.046875 -2.8125 C 7.472656 -3.382812 7.6875 -4.070312 7.6875 -4.875 C 7.6875 -5.664062 7.46875 -6.347656 7.03125 -6.921875 C 6.601562 -7.492188 5.984375 -7.78125 5.171875 -7.78125 C 4.367188 -7.78125 3.75 -7.492188 3.3125 -6.921875 C 2.882812 -6.347656 2.671875 -5.664062 2.671875 -4.875 Z M 2.671875 -4.875 "/></g></g></g><g fill="#1e1e1e" fill-opacity="1"><g transform="translate(162.610661, 339.873322)"><g><path d="M 0.703125 -9.734375 L 4.1875 -9.734375 C 5.125 -9.734375 5.882812 -9.484375 6.46875 -8.984375 C 7.0625 -8.484375 7.359375 -7.769531 7.359375 -6.84375 C 7.359375 -6.125 7.175781 -5.519531 6.8125 -5.03125 C 6.457031 -4.550781 5.976562 -4.210938 5.375 -4.015625 L 8.71875 0 L 5.90625 0 L 2.921875 -3.84375 L 2.921875 0 L 0.703125 0 Z M 2.921875 -5.421875 L 3.1875 -5.421875 C 3.382812 -5.421875 3.554688 -5.421875 3.703125 -5.421875 C 3.847656 -5.429688 4.007812 -5.457031 4.1875 -5.5 C 4.363281 -5.550781 4.507812 -5.617188 4.625 -5.703125 C 4.738281 -5.796875 4.832031 -5.921875 4.90625 -6.078125 C 4.988281 -6.242188 5.03125 -6.445312 5.03125 -6.6875 C 5.03125 -6.925781 4.988281 -7.125 4.90625 -7.28125 C 4.832031 -7.445312 4.738281 -7.570312 4.625 -7.65625 C 4.507812 -7.75 4.363281 -7.816406 4.1875 -7.859375 C 4.007812 -7.910156 3.847656 -7.941406 3.703125 -7.953125 C 3.554688 -7.960938 3.382812 -7.96875 3.1875 -7.96875 L 2.921875 -7.96875 Z M 2.921875 -5.421875 "/></g></g></g><g fill="#1e1e1e" fill-opacity="1"><g transform="translate(173.67354, 339.873322)"><g/></g></g><g fill="#1e1e1e" fill-opacity="1"><g transform="translate(179.512352, 339.873322)"><g><path d="M 0.703125 -9.734375 L 3.53125 -9.734375 C 4.882812 -9.734375 6.039062 -9.269531 7 -8.34375 C 7.957031 -7.414062 8.4375 -6.257812 8.4375 -4.875 C 8.4375 -3.46875 7.957031 -2.300781 7 -1.375 C 6.039062 -0.457031 4.882812 0 3.53125 0 L 0.703125 0 Z M 2.921875 -1.984375 L 3.265625 -1.984375 C 4.078125 -1.984375 4.738281 -2.253906 5.25 -2.796875 C 5.769531 -3.347656 6.035156 -4.035156 6.046875 -4.859375 C 6.046875 -5.679688 5.785156 -6.367188 5.265625 -6.921875 C 4.753906 -7.472656 4.085938 -7.75 3.265625 -7.75 L 2.921875 -7.75 Z M 2.921875 -1.984375 "/></g></g></g><g fill="#1e1e1e" fill-opacity="1"><g transform="translate(190.834655, 339.873322)"><g><path d="M 6.28125 -9.734375 L 6.28125 -7.78125 L 2.921875 -7.78125 L 2.921875 -5.84375 L 6.140625 -5.84375 L 6.140625 -3.90625 L 2.921875 -3.90625 L 2.921875 -1.953125 L 6.28125 -1.953125 L 6.28125 0 L 0.703125 0 L 0.703125 -9.734375 Z M 6.28125 -9.734375 "/></g></g></g><g fill="#1e1e1e" fill-opacity="1"><g transform="translate(200.293758, 339.873322)"><g/></g></g><g fill="#1e1e1e" fill-opacity="1"><g transform="translate(206.132571, 339.873322)"><g><path d="M 3.078125 2.046875 L 2.546875 1.234375 C 2.566406 1.203125 2.597656 1.160156 2.640625 1.109375 C 2.679688 1.066406 2.765625 0.976562 2.890625 0.84375 C 3.015625 0.71875 3.132812 0.601562 3.25 0.5 C 3.375 0.40625 3.515625 0.316406 3.671875 0.234375 C 3.828125 0.160156 3.972656 0.125 4.109375 0.125 L 4.109375 0.078125 C 2.960938 -0.140625 2.035156 -0.703125 1.328125 -1.609375 C 0.617188 -2.523438 0.265625 -3.613281 0.265625 -4.875 C 0.265625 -6.289062 0.738281 -7.484375 1.6875 -8.453125 C 2.632812 -9.421875 3.78125 -9.90625 5.125 -9.90625 C 6.476562 -9.90625 7.617188 -9.421875 8.546875 -8.453125 C 9.484375 -7.484375 9.953125 -6.289062 9.953125 -4.875 C 9.953125 -3.71875 9.640625 -2.695312 9.015625 -1.8125 C 8.398438 -0.9375 7.585938 -0.34375 6.578125 -0.03125 L 6.578125 0.015625 C 6.617188 0.015625 6.820312 0.0507812 7.1875 0.125 C 7.5625 0.195312 7.859375 0.234375 8.078125 0.234375 C 8.378906 0.234375 8.648438 0.179688 8.890625 0.078125 C 9.140625 -0.0234375 9.3125 -0.128906 9.40625 -0.234375 L 9.546875 -0.40625 L 10.234375 1.09375 C 10.222656 1.132812 10.195312 1.179688 10.15625 1.234375 C 10.125 1.296875 10.046875 1.398438 9.921875 1.546875 C 9.796875 1.703125 9.65625 1.835938 9.5 1.953125 C 9.34375 2.078125 9.132812 2.1875 8.875 2.28125 C 8.625 2.375 8.351562 2.421875 8.0625 2.421875 C 7.582031 2.421875 6.992188 2.265625 6.296875 1.953125 C 5.609375 1.648438 5.015625 1.5 4.515625 1.5 C 4.242188 1.5 3.988281 1.539062 3.75 1.625 C 3.507812 1.71875 3.335938 1.8125 3.234375 1.90625 Z M 2.671875 -4.875 C 2.671875 -4.5 2.710938 -4.144531 2.796875 -3.8125 C 2.878906 -3.488281 3.015625 -3.191406 3.203125 -2.921875 C 3.390625 -2.660156 3.644531 -2.453125 3.96875 -2.296875 C 4.289062 -2.140625 4.675781 -2.0625 5.125 -2.0625 C 5.945312 -2.0625 6.554688 -2.328125 6.953125 -2.859375 C 7.359375 -3.398438 7.5625 -4.070312 7.5625 -4.875 C 7.5625 -5.664062 7.351562 -6.332031 6.9375 -6.875 C 6.53125 -7.414062 5.925781 -7.6875 5.125 -7.6875 C 4.320312 -7.6875 3.710938 -7.410156 3.296875 -6.859375 C 2.878906 -6.316406 2.671875 -5.65625 2.671875 -4.875 Z M 2.671875 -4.875 "/></g></g></g><g fill="#1e1e1e" fill-opacity="1"><g transform="translate(218.976101, 339.873322)"><g><path d="M 8.1875 -9.734375 L 8.1875 -3.453125 C 8.1875 -2.253906 7.863281 -1.347656 7.21875 -0.734375 C 6.570312 -0.128906 5.628906 0.171875 4.390625 0.171875 C 3.148438 0.171875 2.207031 -0.128906 1.5625 -0.734375 C 0.914062 -1.347656 0.59375 -2.253906 0.59375 -3.453125 L 0.59375 -9.734375 L 2.8125 -9.734375 L 2.8125 -4.109375 C 2.8125 -3.316406 2.929688 -2.765625 3.171875 -2.453125 C 3.421875 -2.148438 3.820312 -2 4.375 -2 C 4.9375 -2 5.34375 -2.148438 5.59375 -2.453125 C 5.84375 -2.765625 5.96875 -3.316406 5.96875 -4.109375 L 5.96875 -9.734375 Z M 8.1875 -9.734375 "/></g></g></g><g fill="#1e1e1e" fill-opacity="1"><g transform="translate(230.369167, 339.873322)"><g><path d="M 6.28125 -9.734375 L 6.28125 -7.78125 L 2.921875 -7.78125 L 2.921875 -5.84375 L 6.140625 -5.84375 L 6.140625 -3.90625 L 2.921875 -3.90625 L 2.921875 -1.953125 L 6.28125 -1.953125 L 6.28125 0 L 0.703125 0 L 0.703125 -9.734375 Z M 6.28125 -9.734375 "/></g></g></g><g fill="#1e1e1e" fill-opacity="1"><g transform="translate(239.82827, 339.873322)"><g><path d="M 8.75 0 L 8.296875 -5.765625 L 8.234375 -5.765625 L 6.234375 -0.0625 L 4.921875 -0.0625 L 2.921875 -5.765625 L 2.859375 -5.765625 L 2.40625 0 L 0.1875 0 L 1.0625 -9.734375 L 3.421875 -9.734375 L 5.578125 -4.109375 L 7.734375 -9.734375 L 10.09375 -9.734375 L 10.96875 0 Z M 8.75 0 "/></g></g></g><g fill="#1e1e1e" fill-opacity="1"><g transform="translate(112.402192, 355.695572)"><g><path d="M 3.75 0 L -0.328125 -9.734375 L 2.171875 -9.734375 L 4.625 -3.34375 L 7.078125 -9.734375 L 9.578125 -9.734375 L 5.5 0 Z M 3.75 0 "/></g></g></g><g fill="#1e1e1e" fill-opacity="1"><g transform="translate(124.266951, 355.695572)"><g><path d="M 0.265625 -4.875 C 0.265625 -6.28125 0.742188 -7.46875 1.703125 -8.4375 C 2.671875 -9.414062 3.828125 -9.90625 5.171875 -9.90625 C 6.535156 -9.90625 7.691406 -9.421875 8.640625 -8.453125 C 9.597656 -7.484375 10.078125 -6.289062 10.078125 -4.875 C 10.078125 -3.445312 9.609375 -2.25 8.671875 -1.28125 C 7.734375 -0.3125 6.566406 0.171875 5.171875 0.171875 C 3.753906 0.171875 2.582031 -0.304688 1.65625 -1.265625 C 0.726562 -2.234375 0.265625 -3.4375 0.265625 -4.875 Z M 2.671875 -4.875 C 2.671875 -4.363281 2.75 -3.894531 2.90625 -3.46875 C 3.0625 -3.050781 3.332031 -2.695312 3.71875 -2.40625 C 4.113281 -2.113281 4.597656 -1.96875 5.171875 -1.96875 C 6.003906 -1.96875 6.628906 -2.25 7.046875 -2.8125 C 7.472656 -3.382812 7.6875 -4.070312 7.6875 -4.875 C 7.6875 -5.664062 7.46875 -6.347656 7.03125 -6.921875 C 6.601562 -7.492188 5.984375 -7.78125 5.171875 -7.78125 C 4.367188 -7.78125 3.75 -7.492188 3.3125 -6.921875 C 2.882812 -6.347656 2.671875 -5.664062 2.671875 -4.875 Z M 2.671875 -4.875 "/></g></g></g><g fill="#1e1e1e" fill-opacity="1"><g transform="translate(137.228411, 355.695572)"><g><path d="M 5.890625 -2 C 6.222656 -2 6.546875 -2.050781 6.859375 -2.15625 C 7.179688 -2.257812 7.421875 -2.359375 7.578125 -2.453125 L 7.796875 -2.609375 L 8.734375 -0.71875 C 8.703125 -0.695312 8.660156 -0.664062 8.609375 -0.625 C 8.554688 -0.582031 8.425781 -0.507812 8.21875 -0.40625 C 8.019531 -0.300781 7.804688 -0.207031 7.578125 -0.125 C 7.359375 -0.0507812 7.0625 0.015625 6.6875 0.078125 C 6.320312 0.140625 5.941406 0.171875 5.546875 0.171875 C 4.640625 0.171875 3.78125 -0.046875 2.96875 -0.484375 C 2.15625 -0.929688 1.5 -1.539062 1 -2.3125 C 0.507812 -3.09375 0.265625 -3.9375 0.265625 -4.84375 C 0.265625 -5.53125 0.410156 -6.1875 0.703125 -6.8125 C 0.992188 -7.445312 1.378906 -7.988281 1.859375 -8.4375 C 2.347656 -8.882812 2.914062 -9.238281 3.5625 -9.5 C 4.207031 -9.769531 4.867188 -9.90625 5.546875 -9.90625 C 6.171875 -9.90625 6.75 -9.832031 7.28125 -9.6875 C 7.8125 -9.539062 8.1875 -9.390625 8.40625 -9.234375 L 8.734375 -9.015625 L 7.796875 -7.125 C 7.742188 -7.175781 7.660156 -7.234375 7.546875 -7.296875 C 7.441406 -7.359375 7.222656 -7.445312 6.890625 -7.5625 C 6.554688 -7.675781 6.222656 -7.734375 5.890625 -7.734375 C 5.347656 -7.734375 4.863281 -7.644531 4.4375 -7.46875 C 4.019531 -7.289062 3.6875 -7.0625 3.4375 -6.78125 C 3.1875 -6.5 2.992188 -6.191406 2.859375 -5.859375 C 2.734375 -5.535156 2.671875 -5.207031 2.671875 -4.875 C 2.671875 -4.132812 2.945312 -3.46875 3.5 -2.875 C 4.0625 -2.289062 4.859375 -2 5.890625 -2 Z M 5.890625 -2 "/></g></g></g><g fill="#1e1e1e" fill-opacity="1"><g transform="translate(148.727611, 355.695572)"><g><path d="M 0.8125 -11.671875 L 3.421875 -13.59375 L 6.03125 -11.671875 L 5.21875 -10.609375 L 3.421875 -11.921875 L 1.609375 -10.609375 Z M 6.28125 -9.734375 L 6.28125 -7.78125 L 2.921875 -7.78125 L 2.921875 -5.84375 L 6.140625 -5.84375 L 6.140625 -3.90625 L 2.921875 -3.90625 L 2.921875 -1.953125 L 6.28125 -1.953125 L 6.28125 0 L 0.703125 0 L 0.703125 -9.734375 Z M 6.28125 -9.734375 "/></g></g></g><g fill="#1e1e1e" fill-opacity="1"><g transform="translate(158.186718, 355.695572)"><g/></g></g><g fill="#1e1e1e" fill-opacity="1"><g transform="translate(164.02553, 355.695572)"><g><path d="M 8.75 0 L 8.296875 -5.765625 L 8.234375 -5.765625 L 6.234375 -0.0625 L 4.921875 -0.0625 L 2.921875 -5.765625 L 2.859375 -5.765625 L 2.40625 0 L 0.1875 0 L 1.0625 -9.734375 L 3.421875 -9.734375 L 5.578125 -4.109375 L 7.734375 -9.734375 L 10.09375 -9.734375 L 10.96875 0 Z M 8.75 0 "/></g></g></g><g fill="#1e1e1e" fill-opacity="1"><g transform="translate(177.800673, 355.695572)"><g><path d="M 5.65625 -9.734375 L 9.578125 0 L 7.203125 0 L 6.46875 -1.953125 L 2.765625 -1.953125 L 2.046875 0 L -0.328125 0 L 3.59375 -9.734375 Z M 5.71875 -3.890625 L 4.640625 -6.71875 L 4.609375 -6.71875 L 3.53125 -3.890625 Z M 5.71875 -3.890625 "/></g></g></g><g fill="#1e1e1e" fill-opacity="1"><g transform="translate(189.665429, 355.695572)"><g><path d="M 2.921875 -9.734375 L 2.921875 0 L 0.703125 0 L 0.703125 -9.734375 Z M 2.921875 -9.734375 "/></g></g></g><g fill="#1e1e1e" fill-opacity="1"><g transform="translate(195.916975, 355.695572)"><g><path d="M 4.296875 -9.90625 C 4.816406 -9.90625 5.328125 -9.828125 5.828125 -9.671875 C 6.335938 -9.523438 6.710938 -9.375 6.953125 -9.21875 L 7.3125 -8.984375 L 6.421875 -7.21875 C 6.347656 -7.269531 6.25 -7.332031 6.125 -7.40625 C 6 -7.476562 5.757812 -7.578125 5.40625 -7.703125 C 5.0625 -7.828125 4.742188 -7.890625 4.453125 -7.890625 C 4.078125 -7.890625 3.789062 -7.8125 3.59375 -7.65625 C 3.394531 -7.5 3.296875 -7.285156 3.296875 -7.015625 C 3.296875 -6.878906 3.34375 -6.753906 3.4375 -6.640625 C 3.53125 -6.523438 3.691406 -6.40625 3.921875 -6.28125 C 4.148438 -6.15625 4.347656 -6.050781 4.515625 -5.96875 C 4.691406 -5.882812 4.960938 -5.765625 5.328125 -5.609375 C 5.953125 -5.347656 6.484375 -4.984375 6.921875 -4.515625 C 7.367188 -4.054688 7.59375 -3.539062 7.59375 -2.96875 C 7.59375 -2.40625 7.492188 -1.914062 7.296875 -1.5 C 7.097656 -1.082031 6.820312 -0.753906 6.46875 -0.515625 C 6.125 -0.285156 5.738281 -0.113281 5.3125 0 C 4.882812 0.113281 4.421875 0.171875 3.921875 0.171875 C 3.503906 0.171875 3.085938 0.128906 2.671875 0.046875 C 2.265625 -0.0351562 1.921875 -0.140625 1.640625 -0.265625 C 1.367188 -0.398438 1.125 -0.53125 0.90625 -0.65625 C 0.6875 -0.78125 0.523438 -0.890625 0.421875 -0.984375 L 0.265625 -1.109375 L 1.375 -2.96875 C 1.46875 -2.894531 1.597656 -2.796875 1.765625 -2.671875 C 1.929688 -2.546875 2.222656 -2.378906 2.640625 -2.171875 C 3.066406 -1.972656 3.441406 -1.875 3.765625 -1.875 C 4.703125 -1.875 5.171875 -2.191406 5.171875 -2.828125 C 5.171875 -2.960938 5.132812 -3.085938 5.0625 -3.203125 C 5 -3.316406 4.878906 -3.429688 4.703125 -3.546875 C 4.535156 -3.660156 4.382812 -3.75 4.25 -3.8125 C 4.125 -3.882812 3.914062 -3.988281 3.625 -4.125 C 3.332031 -4.257812 3.113281 -4.363281 2.96875 -4.4375 C 2.382812 -4.726562 1.929688 -5.09375 1.609375 -5.53125 C 1.285156 -5.96875 1.125 -6.4375 1.125 -6.9375 C 1.125 -7.8125 1.445312 -8.523438 2.09375 -9.078125 C 2.738281 -9.628906 3.472656 -9.90625 4.296875 -9.90625 Z M 4.296875 -9.90625 "/></g></g></g><g fill="#1e1e1e" fill-opacity="1"><g transform="translate(206.460985, 355.695572)"><g/></g></g><g fill="#1e1e1e" fill-opacity="1"><g transform="translate(212.299798, 355.695572)"><g><path d="M 5.65625 -9.734375 L 9.578125 0 L 7.203125 0 L 6.46875 -1.953125 L 2.765625 -1.953125 L 2.046875 0 L -0.328125 0 L 3.59375 -9.734375 Z M 5.71875 -3.890625 L 4.640625 -6.71875 L 4.609375 -6.71875 L 3.53125 -3.890625 Z M 5.71875 -3.890625 "/></g></g></g><g fill="#1e1e1e" fill-opacity="1"><g transform="translate(224.164554, 355.695572)"><g><path d="M 8.75 0 L 8.296875 -5.765625 L 8.234375 -5.765625 L 6.234375 -0.0625 L 4.921875 -0.0625 L 2.921875 -5.765625 L 2.859375 -5.765625 L 2.40625 0 L 0.1875 0 L 1.0625 -9.734375 L 3.421875 -9.734375 L 5.578125 -4.109375 L 7.734375 -9.734375 L 10.09375 -9.734375 L 10.96875 0 Z M 8.75 0 "/></g></g></g><g fill="#1e1e1e" fill-opacity="1"><g transform="translate(237.939697, 355.695572)"><g><path d="M 5.65625 -9.734375 L 9.578125 0 L 7.203125 0 L 6.46875 -1.953125 L 2.765625 -1.953125 L 2.046875 0 L -0.328125 0 L 3.59375 -9.734375 Z M 5.71875 -3.890625 L 4.640625 -6.71875 L 4.609375 -6.71875 L 3.53125 -3.890625 Z M 5.71875 -3.890625 "/></g></g></g><g fill="#1e1e1e" fill-opacity="1"><g transform="translate(249.804453, 355.695572)"><g><path d="M 2.046875 -2.53125 C 2.429688 -2.53125 2.753906 -2.394531 3.015625 -2.125 C 3.273438 -1.863281 3.40625 -1.546875 3.40625 -1.171875 C 3.40625 -0.796875 3.273438 -0.476562 3.015625 -0.21875 C 2.753906 0.0390625 2.429688 0.171875 2.046875 0.171875 C 1.679688 0.171875 1.363281 0.0390625 1.09375 -0.21875 C 0.832031 -0.476562 0.703125 -0.796875 0.703125 -1.171875 C 0.703125 -1.546875 0.832031 -1.863281 1.09375 -2.125 C 1.363281 -2.394531 1.679688 -2.53125 2.046875 -2.53125 Z M 2.046875 -2.53125 "/></g></g></g><g fill="#1e1e1e" fill-opacity="1"><g transform="translate(256.539496, 355.695572)"><g><path d="M 1 -9.625 C 1.207031 -9.8125 1.441406 -9.90625 1.703125 -9.90625 C 1.972656 -9.90625 2.207031 -9.8125 2.40625 -9.625 C 2.613281 -9.445312 2.71875 -9.25 2.71875 -9.03125 L 2.71875 -8.984375 C 2.71875 -8.816406 2.65625 -8.453125 2.53125 -7.890625 C 2.414062 -7.328125 2.296875 -6.804688 2.171875 -6.328125 L 2 -5.609375 L 1.203125 -5.609375 C 0.867188 -7.492188 0.703125 -8.617188 0.703125 -8.984375 L 0.703125 -9.03125 C 0.703125 -9.25 0.800781 -9.445312 1 -9.625 Z M 3.625 -9.625 C 3.820312 -9.8125 4.054688 -9.90625 4.328125 -9.90625 C 4.597656 -9.90625 4.832031 -9.8125 5.03125 -9.625 C 5.238281 -9.445312 5.34375 -9.25 5.34375 -9.03125 L 5.34375 -8.984375 C 5.34375 -8.816406 5.28125 -8.453125 5.15625 -7.890625 C 5.039062 -7.328125 4.921875 -6.804688 4.796875 -6.328125 L 4.609375 -5.609375 L 3.828125 -5.609375 C 3.492188 -7.492188 3.328125 -8.617188 3.328125 -8.984375 L 3.328125 -9.03125 C 3.328125 -9.25 3.425781 -9.445312 3.625 -9.625 Z M 3.625 -9.625 "/></g></g></g><g fill="#1e1e1e" fill-opacity="1"><g transform="translate(154.294071, 259.830043)"><g><path d="M 5.890625 -2 C 6.222656 -2 6.546875 -2.050781 6.859375 -2.15625 C 7.179688 -2.257812 7.421875 -2.359375 7.578125 -2.453125 L 7.796875 -2.609375 L 8.734375 -0.71875 C 8.703125 -0.695312 8.660156 -0.664062 8.609375 -0.625 C 8.554688 -0.582031 8.425781 -0.507812 8.21875 -0.40625 C 8.019531 -0.300781 7.804688 -0.207031 7.578125 -0.125 C 7.359375 -0.0507812 7.0625 0.015625 6.6875 0.078125 C 6.320312 0.140625 5.941406 0.171875 5.546875 0.171875 C 4.640625 0.171875 3.78125 -0.046875 2.96875 -0.484375 C 2.15625 -0.929688 1.5 -1.539062 1 -2.3125 C 0.507812 -3.09375 0.265625 -3.9375 0.265625 -4.84375 C 0.265625 -5.53125 0.410156 -6.1875 0.703125 -6.8125 C 0.992188 -7.445312 1.378906 -7.988281 1.859375 -8.4375 C 2.347656 -8.882812 2.914062 -9.238281 3.5625 -9.5 C 4.207031 -9.769531 4.867188 -9.90625 5.546875 -9.90625 C 6.171875 -9.90625 6.75 -9.832031 7.28125 -9.6875 C 7.8125 -9.539062 8.1875 -9.390625 8.40625 -9.234375 L 8.734375 -9.015625 L 7.796875 -7.125 C 7.742188 -7.175781 7.660156 -7.234375 7.546875 -7.296875 C 7.441406 -7.359375 7.222656 -7.445312 6.890625 -7.5625 C 6.554688 -7.675781 6.222656 -7.734375 5.890625 -7.734375 C 5.347656 -7.734375 4.863281 -7.644531 4.4375 -7.46875 C 4.019531 -7.289062 3.6875 -7.0625 3.4375 -6.78125 C 3.1875 -6.5 2.992188 -6.191406 2.859375 -5.859375 C 2.734375 -5.535156 2.671875 -5.207031 2.671875 -4.875 C 2.671875 -4.132812 2.945312 -3.46875 3.5 -2.875 C 4.0625 -2.289062 4.859375 -2 5.890625 -2 Z M 5.890625 -2 "/></g></g></g><g fill="#1e1e1e" fill-opacity="1"><g transform="translate(165.793272, 259.830043)"><g><path d="M 2.921875 -9.734375 L 2.921875 -1.953125 L 6.28125 -1.953125 L 6.28125 0 L 0.703125 0 L 0.703125 -9.734375 Z M 2.921875 -9.734375 "/></g></g></g><g fill="#1e1e1e" fill-opacity="1"><g transform="translate(175.075484, 259.830043)"><g><path d="M 0.65625 -11.515625 L 3.0625 -13.59375 L 4.125 -12.234375 L 1.328125 -10.609375 Z M 2.921875 -9.734375 L 2.921875 0 L 0.703125 0 L 0.703125 -9.734375 Z M 2.921875 -9.734375 "/></g></g></g><g fill="#1e1e1e" fill-opacity="1"><g transform="translate(181.327033, 259.830043)"><g><path d="M 2.921875 -6.046875 L 2.921875 0 L 0.703125 0 L 0.703125 -9.734375 L 2.921875 -9.734375 L 6.796875 -3.6875 L 6.8125 -3.6875 L 6.8125 -9.734375 L 9.03125 -9.734375 L 9.03125 0 L 6.8125 0 L 2.953125 -6.046875 Z M 2.921875 -6.046875 "/></g></g></g><g fill="#1e1e1e" fill-opacity="1"><g transform="translate(193.687082, 259.830043)"><g><path d="M 2.921875 -9.734375 L 2.921875 0 L 0.703125 0 L 0.703125 -9.734375 Z M 2.921875 -9.734375 "/></g></g></g><g fill="#1e1e1e" fill-opacity="1"><g transform="translate(199.938632, 259.830043)"><g><path d="M 5.890625 -2 C 6.222656 -2 6.546875 -2.050781 6.859375 -2.15625 C 7.179688 -2.257812 7.421875 -2.359375 7.578125 -2.453125 L 7.796875 -2.609375 L 8.734375 -0.71875 C 8.703125 -0.695312 8.660156 -0.664062 8.609375 -0.625 C 8.554688 -0.582031 8.425781 -0.507812 8.21875 -0.40625 C 8.019531 -0.300781 7.804688 -0.207031 7.578125 -0.125 C 7.359375 -0.0507812 7.0625 0.015625 6.6875 0.078125 C 6.320312 0.140625 5.941406 0.171875 5.546875 0.171875 C 4.640625 0.171875 3.78125 -0.046875 2.96875 -0.484375 C 2.15625 -0.929688 1.5 -1.539062 1 -2.3125 C 0.507812 -3.09375 0.265625 -3.9375 0.265625 -4.84375 C 0.265625 -5.53125 0.410156 -6.1875 0.703125 -6.8125 C 0.992188 -7.445312 1.378906 -7.988281 1.859375 -8.4375 C 2.347656 -8.882812 2.914062 -9.238281 3.5625 -9.5 C 4.207031 -9.769531 4.867188 -9.90625 5.546875 -9.90625 C 6.171875 -9.90625 6.75 -9.832031 7.28125 -9.6875 C 7.8125 -9.539062 8.1875 -9.390625 8.40625 -9.234375 L 8.734375 -9.015625 L 7.796875 -7.125 C 7.742188 -7.175781 7.660156 -7.234375 7.546875 -7.296875 C 7.441406 -7.359375 7.222656 -7.445312 6.890625 -7.5625 C 6.554688 -7.675781 6.222656 -7.734375 5.890625 -7.734375 C 5.347656 -7.734375 4.863281 -7.644531 4.4375 -7.46875 C 4.019531 -7.289062 3.6875 -7.0625 3.4375 -6.78125 C 3.1875 -6.5 2.992188 -6.191406 2.859375 -5.859375 C 2.734375 -5.535156 2.671875 -5.207031 2.671875 -4.875 C 2.671875 -4.132812 2.945312 -3.46875 3.5 -2.875 C 4.0625 -2.289062 4.859375 -2 5.890625 -2 Z M 5.890625 -2 "/></g></g></g><g fill="#1e1e1e" fill-opacity="1"><g transform="translate(211.437832, 259.830043)"><g><path d="M 5.65625 -9.734375 L 9.578125 0 L 7.203125 0 L 6.46875 -1.953125 L 2.765625 -1.953125 L 2.046875 0 L -0.328125 0 L 3.59375 -9.734375 Z M 5.71875 -3.890625 L 4.640625 -6.71875 L 4.609375 -6.71875 L 3.53125 -3.890625 Z M 5.71875 -3.890625 "/></g></g></g><g fill="#1e1e1e" fill-opacity="1"><g transform="translate(133.230701, 275.652293)"><g><path d="M 3.75 0 L -0.328125 -9.734375 L 2.171875 -9.734375 L 4.625 -3.34375 L 7.078125 -9.734375 L 9.578125 -9.734375 L 5.5 0 Z M 3.75 0 "/></g></g></g><g fill="#1e1e1e" fill-opacity="1"><g transform="translate(145.09546, 275.652293)"><g><path d="M 6.28125 -9.734375 L 6.28125 -7.78125 L 2.921875 -7.78125 L 2.921875 -5.84375 L 6.140625 -5.84375 L 6.140625 -3.90625 L 2.921875 -3.90625 L 2.921875 -1.953125 L 6.28125 -1.953125 L 6.28125 0 L 0.703125 0 L 0.703125 -9.734375 Z M 6.28125 -9.734375 "/></g></g></g><g fill="#1e1e1e" fill-opacity="1"><g transform="translate(154.554567, 275.652293)"><g><path d="M 0.09375 -7.78125 L 0.09375 -9.734375 L 6.9375 -9.734375 L 6.9375 -7.78125 L 4.625 -7.78125 L 4.625 0 L 2.40625 0 L 2.40625 -7.78125 Z M 0.09375 -7.78125 "/></g></g></g><g fill="#1e1e1e" fill-opacity="1"><g transform="translate(164.202349, 275.652293)"><g><path d="M 6.28125 -9.734375 L 6.28125 -7.78125 L 2.921875 -7.78125 L 2.921875 -5.84375 L 6.140625 -5.84375 L 6.140625 -3.90625 L 2.921875 -3.90625 L 2.921875 -1.953125 L 6.28125 -1.953125 L 6.28125 0 L 0.703125 0 L 0.703125 -9.734375 Z M 6.28125 -9.734375 "/></g></g></g><g fill="#1e1e1e" fill-opacity="1"><g transform="translate(173.661456, 275.652293)"><g><path d="M 0.703125 -9.734375 L 4.1875 -9.734375 C 5.125 -9.734375 5.882812 -9.484375 6.46875 -8.984375 C 7.0625 -8.484375 7.359375 -7.769531 7.359375 -6.84375 C 7.359375 -6.125 7.175781 -5.519531 6.8125 -5.03125 C 6.457031 -4.550781 5.976562 -4.210938 5.375 -4.015625 L 8.71875 0 L 5.90625 0 L 2.921875 -3.84375 L 2.921875 0 L 0.703125 0 Z M 2.921875 -5.421875 L 3.1875 -5.421875 C 3.382812 -5.421875 3.554688 -5.421875 3.703125 -5.421875 C 3.847656 -5.429688 4.007812 -5.457031 4.1875 -5.5 C 4.363281 -5.550781 4.507812 -5.617188 4.625 -5.703125 C 4.738281 -5.796875 4.832031 -5.921875 4.90625 -6.078125 C 4.988281 -6.242188 5.03125 -6.445312 5.03125 -6.6875 C 5.03125 -6.925781 4.988281 -7.125 4.90625 -7.28125 C 4.832031 -7.445312 4.738281 -7.570312 4.625 -7.65625 C 4.507812 -7.75 4.363281 -7.816406 4.1875 -7.859375 C 4.007812 -7.910156 3.847656 -7.941406 3.703125 -7.953125 C 3.554688 -7.960938 3.382812 -7.96875 3.1875 -7.96875 L 2.921875 -7.96875 Z M 2.921875 -5.421875 "/></g></g></g><g fill="#1e1e1e" fill-opacity="1"><g transform="translate(184.724332, 275.652293)"><g><path d="M 2.921875 -9.734375 L 2.921875 0 L 0.703125 0 L 0.703125 -9.734375 Z M 2.921875 -9.734375 "/></g></g></g><g fill="#1e1e1e" fill-opacity="1"><g transform="translate(190.975878, 275.652293)"><g><path d="M 2.921875 -6.046875 L 2.921875 0 L 0.703125 0 L 0.703125 -9.734375 L 2.921875 -9.734375 L 6.796875 -3.6875 L 6.8125 -3.6875 L 6.8125 -9.734375 L 9.03125 -9.734375 L 9.03125 0 L 6.8125 0 L 2.953125 -6.046875 Z M 2.921875 -6.046875 "/></g></g></g><g fill="#1e1e1e" fill-opacity="1"><g transform="translate(203.335924, 275.652293)"><g><path d="M 3.921875 -11.515625 L 6.328125 -13.59375 L 7.390625 -12.234375 L 4.59375 -10.609375 Z M 5.65625 -9.734375 L 9.578125 0 L 7.203125 0 L 6.46875 -1.953125 L 2.765625 -1.953125 L 2.046875 0 L -0.328125 0 L 3.59375 -9.734375 Z M 5.71875 -3.890625 L 4.640625 -6.71875 L 4.609375 -6.71875 L 3.53125 -3.890625 Z M 5.71875 -3.890625 "/></g></g></g><g fill="#1e1e1e" fill-opacity="1"><g transform="translate(215.20068, 275.652293)"><g><path d="M 0.703125 -9.734375 L 4.1875 -9.734375 C 5.125 -9.734375 5.882812 -9.484375 6.46875 -8.984375 C 7.0625 -8.484375 7.359375 -7.769531 7.359375 -6.84375 C 7.359375 -6.125 7.175781 -5.519531 6.8125 -5.03125 C 6.457031 -4.550781 5.976562 -4.210938 5.375 -4.015625 L 8.71875 0 L 5.90625 0 L 2.921875 -3.84375 L 2.921875 0 L 0.703125 0 Z M 2.921875 -5.421875 L 3.1875 -5.421875 C 3.382812 -5.421875 3.554688 -5.421875 3.703125 -5.421875 C 3.847656 -5.429688 4.007812 -5.457031 4.1875 -5.5 C 4.363281 -5.550781 4.507812 -5.617188 4.625 -5.703125 C 4.738281 -5.796875 4.832031 -5.921875 4.90625 -6.078125 C 4.988281 -6.242188 5.03125 -6.445312 5.03125 -6.6875 C 5.03125 -6.925781 4.988281 -7.125 4.90625 -7.28125 C 4.832031 -7.445312 4.738281 -7.570312 4.625 -7.65625 C 4.507812 -7.75 4.363281 -7.816406 4.1875 -7.859375 C 4.007812 -7.910156 3.847656 -7.941406 3.703125 -7.953125 C 3.554688 -7.960938 3.382812 -7.96875 3.1875 -7.96875 L 2.921875 -7.96875 Z M 2.921875 -5.421875 "/></g></g></g><g fill="#1e1e1e" fill-opacity="1"><g transform="translate(226.263556, 275.652293)"><g><path d="M 2.921875 -9.734375 L 2.921875 0 L 0.703125 0 L 0.703125 -9.734375 Z M 2.921875 -9.734375 "/></g></g></g><g fill="#1e1e1e" fill-opacity="1"><g transform="translate(232.515103, 275.652293)"><g><path d="M 5.65625 -9.734375 L 9.578125 0 L 7.203125 0 L 6.46875 -1.953125 L 2.765625 -1.953125 L 2.046875 0 L -0.328125 0 L 3.59375 -9.734375 Z M 5.71875 -3.890625 L 4.640625 -6.71875 L 4.609375 -6.71875 L 3.53125 -3.890625 Z M 5.71875 -3.890625 "/></g></g></g></svg>